<?xml version="1.0" standalone="no"?>
<!DOCTYPE svg PUBLIC "-//W3C//DTD SVG 20010904//EN"
 "http://www.w3.org/TR/2001/REC-SVG-20010904/DTD/svg10.dtd">
<svg version="1.0" xmlns="http://www.w3.org/2000/svg"
 width="400.000000pt" height="400.000000pt" viewBox="0 0 400.000000 400.000000"
 preserveAspectRatio="xMidYMid meet">
<metadata>
Created by potrace 1.14, written by Peter Selinger 2001-2017
</metadata>
<g transform="translate(0.000000,400.000000) scale(0.100000,-0.100000)"
fill="#000000" stroke="none">
<path d="M1562 3187 c-11 -13 -17 -49 -27 -172 -3 -38 -8 -90 -10 -115 -2 -25
-7 -85 -11 -135 -3 -49 -7 -94 -8 -100 -1 -7 190 -11 549 -13 l550 -2 0 27 c1
36 16 220 20 247 2 12 6 59 10 106 3 47 7 98 9 113 7 59 22 57 -548 57 -412 0
-526 -3 -534 -13z"/>
<path d="M1489 2441 c0 -3 -2 -15 -4 -26 -2 -11 -7 -58 -10 -105 -3 -47 -8
-96 -10 -110 -2 -14 -7 -65 -10 -115 -4 -49 -8 -106 -10 -125 -2 -19 -6 -73
-10 -120 -3 -47 -8 -101 -10 -120 -2 -19 -7 -64 -10 -100 -3 -36 -8 -94 -11
-130 -3 -36 -7 -90 -9 -120 -2 -30 -7 -82 -10 -115 -8 -89 -15 -164 -20 -220
-2 -27 -7 -85 -10 -128 -5 -55 -3 -82 5 -92 11 -13 88 -15 536 -15 590 0 553
-5 555 78 1 26 3 56 4 67 1 11 6 61 9 110 4 50 9 104 11 120 2 17 7 68 10 115
3 47 8 101 10 120 2 19 6 69 10 110 3 41 8 95 10 120 2 25 6 79 10 120 3 41 8
95 10 120 2 25 6 72 9 105 14 161 19 212 21 240 2 17 6 71 10 120 4 50 8 93
10 96 2 3 -243 5 -546 5 -302 0 -549 -2 -550 -5z"/>
</g>
</svg>
