<svg width="31" height="32" viewBox="0 0 31 32" fill="none" xmlns="http://www.w3.org/2000/svg">
<mask id="mask0_132_524" style="mask-type:luminance" maskUnits="userSpaceOnUse" x="2" y="1" width="26" height="26">
<path d="M28 1H2V27H28V1Z" fill="white"/>
</mask>
<g mask="url(#mask0_132_524)">
<path d="M22.5833 20.4999C23.5889 20.4999 24.5534 20.1005 25.2645 19.3894C25.9755 18.6783 26.375 17.7139 26.375 16.7082C26.375 15.7027 25.9755 14.7382 25.2645 14.0271C24.5534 13.3161 23.5889 12.9166 22.5833 12.9166H21.5C21.6581 12.2124 21.6604 11.487 21.507 10.782C21.3536 10.0769 21.0475 9.40599 20.606 8.80743C20.1645 8.20888 19.5963 7.69446 18.9339 7.29353C18.2715 6.89261 17.5279 6.61302 16.7454 6.47076C15.9629 6.3285 15.157 6.32633 14.3736 6.46438C13.5901 6.60244 12.8447 6.87802 12.1796 7.27537C10.8365 8.07787 9.90256 9.3277 9.58332 10.7499C8.42844 10.7037 7.29266 11.0429 6.37045 11.7094C5.44824 12.376 4.79696 13.3285 4.52813 14.4038C4.2593 15.4791 4.38964 16.6104 4.89682 17.6039C5.40401 18.5975 6.25649 19.3914 7.30832 19.8499" stroke="white" stroke-width="2" stroke-linecap="round" stroke-linejoin="round"/>
<path d="M15 15.0834V24.8334" stroke="#36BB91" stroke-width="2" stroke-linecap="round" stroke-linejoin="round"/>
<path d="M11.75 21.5834L15 24.8334L18.25 21.5834" stroke="#36BB91" stroke-width="2" stroke-linecap="round" stroke-linejoin="round"/>
</g>
</svg>
