<svg width="32" height="32" viewBox="0 0 32 32" fill="none" xmlns="http://www.w3.org/2000/svg">
<g clip-path="url(#clip0_132_517)">
<path d="M17.3956 5.00924C17.5481 5.00924 17.6995 5.00924 17.8497 5.00924C16.3654 6.38839 15.4114 8.24403 15.1534 10.2536C14.8954 12.2632 15.3498 14.2996 16.4375 16.009C17.5253 17.7183 19.1776 18.9924 21.1073 19.6099C23.037 20.2273 25.122 20.1491 27 19.3887C26.2776 21.1269 25.0969 22.6364 23.5839 23.7562C22.0708 24.876 20.2822 25.5641 18.4087 25.747C16.5353 25.93 14.6473 25.6009 12.9462 24.795C11.2451 23.9891 9.79471 22.7365 8.74968 21.1709C7.70464 19.6053 7.10419 17.7854 7.01238 15.9053C6.92057 14.0252 7.34084 12.1554 8.22836 10.4954C9.11589 8.83544 10.4374 7.44751 12.0519 6.47969C13.6663 5.51187 15.5133 5.00045 17.3956 5V5.00924Z" stroke="white" stroke-width="2" stroke-linecap="round" stroke-linejoin="round"/>
</g>
<defs>
<clipPath id="clip0_132_517">
<rect width="32" height="32" fill="white"/>
</clipPath>
</defs>
</svg>
