<svg width="22" height="22" viewBox="0 0 22 22" fill="none" xmlns="http://www.w3.org/2000/svg">
<g clip-path="url(#clip0_132_583)">
<path d="M9.05942 2.02308C9.49544 1.9717 9.93478 2.08688 10.2895 2.34557C10.6442 2.60427 10.8882 2.98739 10.9725 3.41825L10.9954 3.57133L11 3.66667V10.0833C11 10.3079 11.0825 10.5246 11.2317 10.6923C11.3809 10.8601 11.5864 10.9673 11.8094 10.9936L11.9167 11H18.15C18.6362 11 19.1025 11.1932 19.4464 11.537C19.7902 11.8808 19.9833 12.3471 19.9833 12.8333C19.9833 12.9031 19.9753 12.9726 19.9595 13.0405C19.5927 14.6233 18.8117 16.0801 17.6967 17.2618C16.5816 18.4435 15.1726 19.3076 13.6137 19.7657C12.0549 20.2237 10.4023 20.2592 8.82529 19.8685C7.24823 19.4778 5.80335 18.675 4.63861 17.5422C3.47387 16.4095 2.63112 14.9875 2.19668 13.4219C1.76223 11.8564 1.75169 10.2035 2.16614 8.63247C2.58059 7.06149 3.40513 5.6289 4.55533 4.48138C5.70553 3.33387 7.14006 2.51269 8.712 2.10192L8.9595 2.0405L9.06034 2.02217L9.05942 2.02308Z" fill="#36BB91"/>
<path d="M12.8333 3.20836V8.25003C12.8333 8.49314 12.9299 8.7263 13.1018 8.89821C13.2737 9.07012 13.5069 9.16669 13.75 9.16669H18.7917C18.9382 9.16665 19.0826 9.13149 19.2127 9.06415C19.3428 8.99682 19.4549 8.89927 19.5396 8.77969C19.6242 8.66011 19.679 8.52197 19.6993 8.37686C19.7195 8.23175 19.7047 8.0839 19.6561 7.94569C19.2008 6.65258 18.4613 5.47805 17.492 4.50859C16.5227 3.53913 15.3483 2.79943 14.0553 2.34394C13.917 2.29512 13.769 2.28017 13.6238 2.30035C13.4786 2.32054 13.3403 2.37527 13.2206 2.45995C13.1009 2.54463 13.0033 2.65679 12.9359 2.78702C12.8685 2.91724 12.8333 3.06173 12.8333 3.20836Z" fill="#36BB91"/>
</g>
<defs>
<clipPath id="clip0_132_583">
<rect width="22" height="22" fill="white"/>
</clipPath>
</defs>
</svg>
