<svg width="32" height="32" viewBox="0 0 32 32" fill="none" xmlns="http://www.w3.org/2000/svg">
<g clip-path="url(#clip0_132_534)">
<path d="M14.2351 5.00725C12.3862 5.43572 10.6857 6.35088 9.30985 7.65781C7.93404 8.96474 6.93306 10.6158 6.41075 12.4398C5.88844 14.2639 5.86381 16.1943 6.33943 18.0311C6.81505 19.8678 7.77359 21.5439 9.11562 22.8855C10.4577 24.227 12.1343 25.1852 13.9717 25.6607C15.809 26.1361 17.7402 26.1115 19.5648 25.5894C21.3895 25.0673 23.0411 24.0666 24.3485 22.6913C25.6559 21.3159 26.5714 19.616 27 17.7677C27 17.4544 26.8755 17.1538 26.6538 16.9323C26.4322 16.7107 26.1315 16.5862 25.8181 16.5862H21.3267C21.1118 17.4121 20.6825 18.1666 20.0822 18.7733C19.482 19.3801 18.732 19.8175 17.9082 20.0414C17.0845 20.2653 16.2162 20.2677 15.3912 20.0483C14.5662 19.829 13.8139 19.3957 13.2102 18.7923C12.6066 18.1888 12.1731 17.4367 11.9537 16.612C11.7343 15.7873 11.7367 14.9193 11.9606 14.0959C12.1846 13.2724 12.6222 12.5227 13.2292 11.9226C13.8361 11.3225 14.5909 10.8934 15.417 10.6786V5.95247C15.4024 5.81249 15.36 5.67681 15.2925 5.55331C15.225 5.42981 15.1336 5.32094 15.0236 5.23302C14.9137 5.14509 14.7874 5.07986 14.652 5.04111C14.5167 5.00235 14.375 4.99084 14.2351 5.00725Z" stroke="#36BB91" stroke-width="2" stroke-linecap="round" stroke-linejoin="round"/>
<path d="M20 6C21.3852 6.48773 22.6433 7.27996 23.6816 8.31836C24.72 9.35675 25.5123 10.6148 26 12H21.0909C20.7564 11.6083 20.3917 11.2436 20 10.9091V6Z" stroke="#36BB91" stroke-width="2" stroke-linecap="round" stroke-linejoin="round"/>
</g>
<defs>
<clipPath id="clip0_132_534">
<rect width="32" height="32" fill="white"/>
</clipPath>
</defs>
</svg>
