<svg width="24" height="25" viewBox="0 0 24 25" fill="none" xmlns="http://www.w3.org/2000/svg">
<g clip-path="url(#clip0_9_17)">
<path d="M3 10.5C3 7.29999 5.66667 7.16665 7 7.49999L17 17.5V18.5C17 20.9 15 21.5 14 21.5H6C3.6 21.5 3 19.1667 3 18V10.5Z" fill="#36BB91"/>
<path d="M8 4.5C8 3.96957 8.21071 3.46086 8.58579 3.08579C8.96086 2.71071 9.46957 2.5 10 2.5H20C20.5304 2.5 21.0391 2.71071 21.4142 3.08579C21.7893 3.46086 22 3.96957 22 4.5V14.5C22 15.0304 21.7893 15.5391 21.4142 15.9142C21.0391 16.2893 20.5304 16.5 20 16.5H10C9.46957 16.5 8.96086 16.2893 8.58579 15.9142C8.21071 15.5391 8 15.0304 8 14.5V4.5Z" fill="#334155" stroke="#F1F5F9" stroke-width="2" stroke-linecap="round" stroke-linejoin="round"/>
<path d="M17 17.5V19.5C17 20.0304 16.7893 20.5391 16.4142 20.9142C16.0391 21.2893 15.5304 21.5 15 21.5H5C4.46957 21.5 3.96086 21.2893 3.58579 20.9142C3.21071 20.5391 3 20.0304 3 19.5V9.5C3 8.96957 3.21071 8.46086 3.58579 8.08579C3.96086 7.71071 4.46957 7.5 5 7.5H7" stroke="#F1F5F9" stroke-width="2" stroke-linecap="round" stroke-linejoin="round"/>
</g>
<defs>
<clipPath id="clip0_9_17">
<rect width="24" height="24" fill="white" transform="translate(0 0.5)"/>
</clipPath>
</defs>
</svg>
