<svg width="32" height="32" viewBox="0 0 32 32" fill="none" xmlns="http://www.w3.org/2000/svg">
<g clip-path="url(#clip0_132_538)">
<path d="M5.33334 10.6667V8.00004C5.33334 7.2928 5.61429 6.61452 6.11439 6.11442C6.61449 5.61433 7.29277 5.33337 8.00001 5.33337H10.6667" stroke="#36BB91" stroke-width="2" stroke-linecap="round" stroke-linejoin="round"/>
<path d="M5.33334 21.3334V24C5.33334 24.7073 5.61429 25.3856 6.11439 25.8857C6.61449 26.3858 7.29277 26.6667 8.00001 26.6667H10.6667" stroke="#36BB91" stroke-width="2" stroke-linecap="round" stroke-linejoin="round"/>
<path d="M21.3333 5.33337H24C24.7073 5.33337 25.3855 5.61433 25.8856 6.11442C26.3857 6.61452 26.6667 7.2928 26.6667 8.00004V10.6667" stroke="#36BB91" stroke-width="2" stroke-linecap="round" stroke-linejoin="round"/>
<path d="M21.3333 26.6667H24C24.7073 26.6667 25.3855 26.3858 25.8856 25.8857C26.3857 25.3856 26.6667 24.7073 26.6667 24V21.3334" stroke="#36BB91" stroke-width="2" stroke-linecap="round" stroke-linejoin="round"/>
<path d="M16 21.3333V12" stroke="#36BB91" stroke-width="2" stroke-linecap="round" stroke-linejoin="round"/>
<path d="M12 12H20" stroke="#36BB91" stroke-width="2" stroke-linecap="round" stroke-linejoin="round"/>
</g>
<defs>
<clipPath id="clip0_132_538">
<rect width="32" height="32" fill="white"/>
</clipPath>
</defs>
</svg>
