<svg width="22" height="22" viewBox="0 0 22 22" fill="none" xmlns="http://www.w3.org/2000/svg">
<g clip-path="url(#clip0_79_56)">
<path d="M13.5923 13.5923C13.9425 13.2541 14.2219 12.8495 14.414 12.4021C14.6062 11.9548 14.7074 11.4737 14.7116 10.9868C14.7158 10.4999 14.623 10.0171 14.4387 9.56649C14.2543 9.11587 13.9821 8.70648 13.6378 8.36221C13.2935 8.01794 12.8841 7.74568 12.4335 7.56131C11.9829 7.37695 11.5001 7.28418 11.0132 7.28841C10.5263 7.29264 10.0452 7.39379 9.59785 7.58595C9.1505 7.77812 8.7459 8.05745 8.40766 8.40766C7.73975 9.0992 7.37017 10.0254 7.37853 10.9868C7.38688 11.9482 7.7725 12.8678 8.45233 13.5477C9.13216 14.2275 10.0518 14.6131 11.0132 14.6215C11.9746 14.6298 12.9008 14.2602 13.5923 13.5923Z" stroke="#F1F5F9" stroke-width="2" stroke-linecap="round" stroke-linejoin="round"/>
<path d="M5.81442 16.1856L4.51825 17.4817" stroke="#F1F5F9" stroke-width="2" stroke-linecap="round" stroke-linejoin="round"/>
<path d="M5.81442 5.81442L4.51825 4.51825" stroke="#F1F5F9" stroke-width="2" stroke-linecap="round" stroke-linejoin="round"/>
<path d="M16.1856 5.81442L17.4817 4.51825" stroke="#F1F5F9" stroke-width="2" stroke-linecap="round" stroke-linejoin="round"/>
<path d="M16.1856 16.1856L17.4817 17.4817" stroke="#F1F5F9" stroke-width="2" stroke-linecap="round" stroke-linejoin="round"/>
<path d="M3.66666 11H1.83333" stroke="#36BB91" stroke-width="2" stroke-linecap="round" stroke-linejoin="round"/>
<path d="M11 3.66668V1.83334" stroke="#36BB91" stroke-width="2" stroke-linecap="round" stroke-linejoin="round"/>
<path d="M18.3333 11H20.1667" stroke="#36BB91" stroke-width="2" stroke-linecap="round" stroke-linejoin="round"/>
<path d="M11 18.3333V20.1667" stroke="#36BB91" stroke-width="2" stroke-linecap="round" stroke-linejoin="round"/>
</g>
<defs>
<clipPath id="clip0_79_56">
<rect width="22" height="22" fill="white"/>
</clipPath>
</defs>
</svg>
