<svg width="22" height="22" viewBox="0 0 22 22" fill="none" xmlns="http://www.w3.org/2000/svg">
<g clip-path="url(#clip0_79_22)">
<path d="M2.75 11.9167C2.75 11.6736 2.84658 11.4404 3.01849 11.2685C3.19039 11.0966 3.42355 11 3.66667 11H7.33333C7.57645 11 7.80961 11.0966 7.98151 11.2685C8.15342 11.4404 8.25 11.6736 8.25 11.9167V17.4167C8.25 17.6598 8.15342 17.8929 7.98151 18.0648C7.80961 18.2368 7.57645 18.3333 7.33333 18.3333H3.66667C3.42355 18.3333 3.19039 18.2368 3.01849 18.0648C2.84658 17.8929 2.75 17.6598 2.75 17.4167V11.9167Z" stroke="#F1F5F9" stroke-width="2" stroke-linecap="round" stroke-linejoin="round"/>
<path d="M8.25 8.25001C8.25 8.0069 8.34658 7.77374 8.51849 7.60183C8.69039 7.42992 8.92355 7.33334 9.16667 7.33334H12.8333C13.0764 7.33334 13.3096 7.42992 13.4815 7.60183C13.6534 7.77374 13.75 8.0069 13.75 8.25001V17.4167C13.75 17.6598 13.6534 17.893 13.4815 18.0649C13.3096 18.2368 13.0764 18.3333 12.8333 18.3333H9.16667C8.92355 18.3333 8.69039 18.2368 8.51849 18.0649C8.34658 17.893 8.25 17.6598 8.25 17.4167V8.25001Z" stroke="#36BB91" stroke-width="2" stroke-linecap="round" stroke-linejoin="round"/>
<path d="M13.75 4.58332C13.75 4.34021 13.8466 4.10705 14.0185 3.93514C14.1904 3.76323 14.4236 3.66666 14.6667 3.66666H18.3333C18.5764 3.66666 18.8096 3.76323 18.9815 3.93514C19.1534 4.10705 19.25 4.34021 19.25 4.58332V17.4167C19.25 17.6598 19.1534 17.8929 18.9815 18.0648C18.8096 18.2367 18.5764 18.3333 18.3333 18.3333H14.6667C14.4236 18.3333 14.1904 18.2367 14.0185 18.0648C13.8466 17.8929 13.75 17.6598 13.75 17.4167V4.58332Z" stroke="#F1F5F9" stroke-width="2" stroke-linecap="round" stroke-linejoin="round"/>
<path d="M3.66666 18.3333H16.5" stroke="#F1F5F9" stroke-width="2" stroke-linecap="round" stroke-linejoin="round"/>
</g>
<defs>
<clipPath id="clip0_79_22">
<rect width="22" height="22" rx="4" fill="white"/>
</clipPath>
</defs>
</svg>
