<svg width="22" height="22" viewBox="0 0 22 22" fill="none" xmlns="http://www.w3.org/2000/svg">
<g clip-path="url(#clip0_79_42)">
<path d="M2.75 14.6667C2.75 15.396 3.03973 16.0955 3.55546 16.6112C4.07118 17.1269 4.77065 17.4167 5.5 17.4167C6.22935 17.4167 6.92882 17.1269 7.44454 16.6112C7.96027 16.0955 8.25 15.396 8.25 14.6667C8.25 13.9373 7.96027 13.2378 7.44454 12.7221C6.92882 12.2064 6.22935 11.9167 5.5 11.9167C4.77065 11.9167 4.07118 12.2064 3.55546 12.7221C3.03973 13.2378 2.75 13.9373 2.75 14.6667Z" stroke="#F1F5F9" stroke-width="2" stroke-linecap="round" stroke-linejoin="round"/>
<path d="M12.8333 17.4167C12.8333 17.9029 13.0265 18.3692 13.3703 18.713C13.7141 19.0569 14.1804 19.25 14.6667 19.25C15.1529 19.25 15.6192 19.0569 15.963 18.713C16.3069 18.3692 16.5 17.9029 16.5 17.4167C16.5 16.9304 16.3069 16.4641 15.963 16.1203C15.6192 15.7765 15.1529 15.5833 14.6667 15.5833C14.1804 15.5833 13.7141 15.7765 13.3703 16.1203C13.0265 16.4641 12.8333 16.9304 12.8333 17.4167Z" stroke="#F1F5F9" stroke-width="2" stroke-linecap="round" stroke-linejoin="round"/>
<path d="M9.16666 6.875C9.16666 7.96902 9.60125 9.01823 10.3748 9.79182C11.1484 10.5654 12.1976 11 13.2917 11C14.3857 11 15.4349 10.5654 16.2085 9.79182C16.9821 9.01823 17.4167 7.96902 17.4167 6.875C17.4167 5.78098 16.9821 4.73177 16.2085 3.95818C15.4349 3.1846 14.3857 2.75 13.2917 2.75C12.1976 2.75 11.1484 3.1846 10.3748 3.95818C9.60125 4.73177 9.16666 5.78098 9.16666 6.875Z" stroke="#36BB91" stroke-width="2" stroke-linecap="round" stroke-linejoin="round"/>
</g>
<defs>
<clipPath id="clip0_79_42">
<rect width="22" height="22" fill="white"/>
</clipPath>
</defs>
</svg>
